{"title":"Minimolude.Achan.2014.Malayalam.DVDRip.x264.N3kr4","uid":10325264,"size":609546161,"categoryP":"video","categoryS":"hd___movies","magnet":"?xt=urn:btih:11b9c26eb6641c7b68885b266a3ac4535412cd1b&amp;dn=Minimolude.Achan.2014.Malayalam.DVDRip.x264.N3kr4&amp;tr=udp%3A%2F%2Ftracker.openbittorrent.com%3A80&amp;tr=udp%3A%2F%2Fopen.demonii.com%3A1337&amp;tr=udp%3A%2F%2Ftracker.coppersurfer.tk%3A6969&amp;tr=udp%3A%2F%2Fexodus.desync.com%3A6969","seeders":1,"leechers":0,"uploader":"Falcon.G13","files":1,"time":1402351764,"description":" &lt;a href=&quot;http://i.imgur.com/Wr3n3SW.jpg&quot; rel=&quot;nofollow&quot; target=&quot;_NEW&quot;&gt;http://i.imgur.com/Wr3n3SW.jpg&lt;/a&gt; &lt;a href=&quot;\nhttp://i.imgur.com/6d7oPId.jpg&quot; rel=&quot;nofollow&quot; target=&quot;_NEW&quot;&gt;\nhttp://i.imgur.com/6d7oPId.jpg&lt;/a&gt; &lt;a href=&quot;\nhttp://i.imgur.com/1ZzHPuW.jpg&quot; rel=&quot;nofollow&quot; target=&quot;_NEW&quot;&gt;\nhttp://i.imgur.com/1ZzHPuW.jpg&lt;/a&gt; &lt;a href=&quot;\nhttp://i.imgur.com/YYsWDf5.jpg&quot; rel=&quot;nofollow&quot; target=&quot;_NEW&quot;&gt;\nhttp://i.imgur.com/YYsWDf5.jpg&lt;/a&gt; &lt;a href=&quot;\nhttp://i.imgur.com/MUOWZv0.jpg&quot; rel=&quot;nofollow&quot; target=&quot;_NEW&quot;&gt;\nhttp://i.imgur.com/MUOWZv0.jpg&lt;/a&gt; &lt;a href=&quot;\nhttp://i.imgur.com/oYcpAxp.jpg&quot; rel=&quot;nofollow&quot; target=&quot;_NEW&quot;&gt;\nhttp://i.imgur.com/oYcpAxp.jpg&lt;/a&gt; &lt;a href=&quot;\nhttp://i.imgur.com/gEMe5Eh.jpg&quot; rel=&quot;nofollow&quot; target=&quot;_NEW&quot;&gt;\nhttp://i.imgur.com/gEMe5Eh.jpg&lt;/a&gt; &lt;a href=&quot;\nhttp://i.imgur.com/TSs7Y9A.jpg&quot; rel=&quot;nofollow&quot; target=&quot;_NEW&quot;&gt;\nhttp://i.imgur.com/TSs7Y9A.jpg&lt;/a&gt; &lt;a href=&quot;\nhttp://i.imgur.com/TUHDAgF.jpg&quot; rel=&quot;nofollow&quot; target=&quot;_NEW&quot;&gt;\nhttp://i.imgur.com/TUHDAgF.jpg&lt;/a&gt;\n\nGeneral\nComplete name :Minimolude.Achan .2014.Malayalam.DVRip.x264.N3kr4.mp4\nFormat : MPEG-4\nFormat profile : Base Media / Version 2\nCodec ID : mp42\nFile size : 581 MiB\nDuration : 2h 6mn\nOverall bit rate mode : Variable\nOverall bit rate : 640 Kbps\nEncoded date : UTC 2014-05-29 09:21:20\nTagged date : UTC 2014-05-29 09:21:20\ngsst : 0\ngstd : 7616005\ngssd : B3EFCA98BHH1401630724501430\ngshh : r8---sn-8pgbpohxqp5-ajte.googlevideo.com\n\nVideo\nID : 1\nFormat : AVC\nFormat/Info : Advanced Video Codec\nFormat profile : &lt;a class=&quot;__cf_email__&quot; href=&quot;/cdn-cgi/l/email-protection&quot; data-cfemail=&quot;d496b5a7b1b8bdbab19498e7fae4&quot;&gt;[email&amp;#160;protected]&lt;/a&gt;&lt;script cf-hash='f9e31' type=&quot;text/javascript&quot;&gt;\n/* &lt;![CDATA[ */!function(){try{var t=&quot;currentScript&quot;in document?document.currentScript:function(){for(var t=document.getElementsByTagName(&quot;script&quot;),e=t.length;e--;)if(t[e].getAttribute(&quot;cf-hash&quot;))return t[e]}();if(t&amp;&amp;t.previousSibling){var e,r,n,i,c=t.previousSibling,a=c.getAttribute(&quot;data-cfemail&quot;);if(a){for(e=&quot;&quot;,r=parseInt(a.substr(0,2),16),n=2;a.length-n;n+=2)i=parseInt(a.substr(n,2),16)^r,e+=String.fromCharCode(i);e=document.createTextNode(e),c.parentNode.replaceChild(e,c)}}}catch(u){}}();/* ]]&gt; */&lt;/script&gt;\nFormat settings, CABAC : No\nFormat settings, ReFrames : 1 frame\nCodec ID : avc1\nCodec ID/Info : Advanced Video Coding\nDuration : 2h 6mn\nBit rate : 542 Kbps\nMaximum bit rate : 1 897 Kbps\nWidth : 640 pixels\nHeight : 360 pixels\nDisplay aspect ratio : 16:9\nFrame rate mode : Constant\nFrame rate : 24.000 fps\nColor space : YUV\nChroma subsampling : 4:2:0\nBit depth : 8 bits\nScan type : Progressive\nBits/(Pixel*Frame) : 0.098\nStream size : 492 MiB (85%)\nTagged date : UTC 2014-05-29 09:22:51\n\nAudio\nID : 2\nFormat : AAC\nFormat/Info : Advanced Audio Codec\nFormat profile : LC\nCodec ID : 40\nDuration : 2h 6mn\nBit rate mode : Variable\nBit rate : 96.0 Kbps\nMaximum bit rate : 106 Kbps\nChannel(s) : 2 channels\nChannel positions : Front: L R\nSampling rate : 44.1 KHz\nCompression mode : Lossy\nStream size : 87.2 MiB (15%)","torrent":{"xt":"urn:btih:11b9c26eb6641c7b68885b266a3ac4535412cd1b","amp;dn":"Minimolude.Achan.2014.Malayalam.DVDRip.x264.N3kr4","amp;tr":["udp%3A%2F%2Ftracker.openbittorrent.com%3A80","udp%3A%2F%2Fopen.demonii.com%3A1337","udp%3A%2F%2Ftracker.coppersurfer.tk%3A6969","udp%3A%2F%2Fexodus.desync.com%3A6969"],"infoHash":"11b9c26eb6641c7b68885b266a3ac4535412cd1b","infoHashBuffer":{"type":"Buffer","data":[17,185,194,110,182,100,28,123,104,136,91,38,106,58,196,83,84,18,205,27]},"announce":[],"urlList":[]}}